<svg width="20" height="18" viewBox="0 0 20 18" fill="none" xmlns="http://www.w3.org/2000/svg">
<path d="M7.77187 16.6168V11.3412H11.9942V16.6168C11.9942 17.1972 12.4692 17.672 13.0498 17.672H16.2166C16.7971 17.672 17.2721 17.1972 17.2721 16.6168V9.23096H19.0666C19.5522 9.23096 19.7844 8.62954 19.415 8.313L10.5903 0.367904C10.1892 0.00916074 9.57692 0.00916074 9.1758 0.367904L0.351102 8.313C-0.00779723 8.62954 0.213876 9.23096 0.699445 9.23096H2.49394V16.6168C2.49394 17.1972 2.96895 17.672 3.54953 17.672H6.71628C7.29685 17.672 7.77187 17.1972 7.77187 16.6168Z" fill="url(#paint0_linear_11_476)"/>
<defs>
<linearGradient id="paint0_linear_11_476" x1="0.17392" y1="19.0593" x2="0.17392" y2="-2.21341" gradientUnits="userSpaceOnUse">
<stop stop-color="#4367E8"/>
<stop offset="0.6" stop-color="#A192FF"/>
<stop offset="1" stop-color="#A46CEB"/>
</linearGradient>
</defs>
</svg>
