<svg width="21" height="25" viewBox="0 0 21 25" fill="none" xmlns="http://www.w3.org/2000/svg">
<path d="M19.193 2.81933L5.39072 0.350129C4.94794 0.27119 4.49235 0.373645 4.12413 0.634962C3.7559 0.89628 3.5052 1.29506 3.42714 1.74362L0.274606 19.8869C0.236048 20.1092 0.241099 20.337 0.289471 20.5573C0.337844 20.7775 0.428589 20.986 0.556522 21.1708C0.684455 21.3555 0.847067 21.5129 1.03507 21.634C1.22306 21.755 1.43277 21.8373 1.65218 21.8762L15.4545 24.3454C15.6739 24.3847 15.8989 24.3797 16.1164 24.3307C16.334 24.2818 16.5399 24.1899 16.7224 24.0603C16.9048 23.9306 17.0603 23.7658 17.1798 23.5753C17.2994 23.3848 17.3807 23.1722 17.4191 22.9498L20.5716 4.80651C20.6489 4.35778 20.547 3.89635 20.2885 3.5237C20.0299 3.15105 19.6359 2.89768 19.193 2.81933ZM11.2158 12.7294C11.1812 12.9281 11.0786 13.1081 10.9261 13.2379C10.7736 13.3676 10.5809 13.4389 10.3818 13.4391C10.3321 13.439 10.2824 13.4347 10.2334 13.4262L5.83578 12.6393C5.62679 12.5872 5.44517 12.4565 5.32776 12.2738C5.21035 12.091 5.16595 11.8699 5.20356 11.6552C5.24118 11.4405 5.35798 11.2483 5.53029 11.1177C5.7026 10.987 5.91751 10.9276 6.13143 10.9516L10.527 11.7342C10.6367 11.7537 10.7416 11.7949 10.8357 11.8554C10.9297 11.916 11.011 11.9947 11.075 12.0872C11.139 12.1796 11.1843 12.2839 11.2085 12.3941C11.2326 12.5043 11.2351 12.6183 11.2158 12.7294ZM16.1962 10.1336C16.1617 10.3321 16.0593 10.5119 15.907 10.6416C15.7547 10.7714 15.5623 10.8427 15.3633 10.8432C15.3132 10.8433 15.2632 10.8386 15.2139 10.8292L6.4186 9.25645C6.19714 9.21673 6.00032 9.08951 5.87145 8.90277C5.74257 8.71603 5.6922 8.48508 5.73141 8.26071C5.77061 8.03635 5.89619 7.83695 6.08051 7.70639C6.26483 7.57582 6.49279 7.52478 6.71425 7.5645L15.5096 9.13835C15.6194 9.15768 15.7244 9.19877 15.8186 9.25928C15.9127 9.31978 15.9942 9.39851 16.0583 9.49096C16.1224 9.5834 16.1678 9.68775 16.192 9.79801C16.2162 9.90828 16.2188 10.0223 16.1994 10.1336H16.1962ZM16.7843 6.74967C16.7498 6.94835 16.6472 7.12835 16.4947 7.2581C16.3422 7.38786 16.1495 7.45908 15.9504 7.45929C15.9007 7.45923 15.851 7.45492 15.802 7.44641L7.00672 5.87256C6.89457 5.85584 6.78686 5.81649 6.68997 5.75686C6.59309 5.69722 6.50899 5.6185 6.44266 5.52536C6.37634 5.43222 6.32912 5.32654 6.30381 5.21459C6.27851 5.10264 6.27562 4.98668 6.29532 4.87357C6.31503 4.76047 6.35693 4.65252 6.41854 4.55611C6.48015 4.4597 6.56022 4.37678 6.65401 4.31228C6.74781 4.24777 6.85342 4.20297 6.9646 4.18054C7.07579 4.15811 7.19028 4.1585 7.30131 4.18169L16.0966 5.75447C16.2066 5.77367 16.3117 5.81467 16.406 5.87512C16.5003 5.93558 16.5818 6.01429 16.646 6.10674C16.7102 6.1992 16.7557 6.30359 16.78 6.41391C16.8043 6.52424 16.8069 6.63834 16.7875 6.74967H16.7843Z" fill="url(#paint0_linear_8_357)"/>
<defs>
<linearGradient id="paint0_linear_8_357" x1="0.249012" y1="26.2214" x2="0.249012" y2="-1.06322" gradientUnits="userSpaceOnUse">
<stop stop-color="#4367E8"/>
<stop offset="0.6" stop-color="#A192FF"/>
<stop offset="1" stop-color="#A46CEB"/>
</linearGradient>
</defs>
</svg>
