<svg width="20" height="19" viewBox="0 0 20 19" fill="none" xmlns="http://www.w3.org/2000/svg">
<path fill-rule="evenodd" clip-rule="evenodd" d="M5.85171 4.38856C5.85171 3.29041 6.28795 2.23724 7.06446 1.46073C7.84096 0.684223 8.89413 0.247986 9.99228 0.247986C11.0904 0.247986 12.1436 0.684223 12.9201 1.46073C13.6966 2.23724 14.1329 3.29041 14.1329 4.38856C14.1329 5.48671 13.6966 6.53988 12.9201 7.31639C12.1436 8.09289 11.0904 8.52913 9.99228 8.52913C8.89413 8.52913 7.84096 8.09289 7.06446 7.31639C6.28795 6.53988 5.85171 5.48671 5.85171 4.38856ZM5.85171 10.5994C4.47903 10.5994 3.16256 11.1447 2.19193 12.1153C1.22129 13.086 0.675995 14.4024 0.675995 15.7751C0.675995 16.5987 1.00317 17.3886 1.58555 17.971C2.16794 18.5534 2.95781 18.8806 3.78142 18.8806H16.2031C17.0268 18.8806 17.8166 18.5534 18.399 17.971C18.9814 17.3886 19.3086 16.5987 19.3086 15.7751C19.3086 14.4024 18.7633 13.086 17.7926 12.1153C16.822 11.1447 15.5055 10.5994 14.1329 10.5994H5.85171Z" fill="white"/>
</svg>
