<svg width="19" height="19" viewBox="0 0 19 19" fill="none" xmlns="http://www.w3.org/2000/svg">
<path fill-rule="evenodd" clip-rule="evenodd" d="M5.54148 4.28456C5.54148 3.19434 5.97456 2.14878 6.74546 1.37788C7.51637 0.606976 8.56193 0.173889 9.65215 0.173889C10.7424 0.173889 11.7879 0.606976 12.5588 1.37788C13.3297 2.14878 13.7628 3.19434 13.7628 4.28456C13.7628 5.37478 13.3297 6.42035 12.5588 7.19125C11.7879 7.96215 10.7424 8.39523 9.65215 8.39523C8.56193 8.39523 7.51637 7.96215 6.74546 7.19125C5.97456 6.42035 5.54148 5.37478 5.54148 4.28456ZM5.54148 10.4506C4.1787 10.4506 2.87175 10.9919 1.90812 11.9556C0.944497 12.9192 0.403137 14.2261 0.403137 15.5889C0.403137 16.4066 0.727953 17.1907 1.30613 17.7689C1.8843 18.3471 2.66848 18.6719 3.48614 18.6719H15.8182C16.6358 18.6719 17.42 18.3471 17.9982 17.7689C18.5763 17.1907 18.9012 16.4066 18.9012 15.5889C18.9012 14.2261 18.3598 12.9192 17.3962 11.9556C16.4326 10.9919 15.1256 10.4506 13.7628 10.4506H5.54148Z" fill="url(#paint0_linear_26_1173)"/>
<defs>
<linearGradient id="paint0_linear_26_1173" x1="0.403137" y1="20.5217" x2="0.403137" y2="2.48614" gradientUnits="userSpaceOnUse">
<stop stop-color="#4367E8"/>
<stop offset="0.504713" stop-color="#A192FF"/>
<stop offset="1" stop-color="#A46CEB"/>
</linearGradient>
</defs>
</svg>
