<svg width="22" height="18" viewBox="0 0 22 18" fill="none" xmlns="http://www.w3.org/2000/svg">
<g clip-path="url(#clip0_38_1742)">
<path fill-rule="evenodd" clip-rule="evenodd" d="M17.1925 3.0276H20.2316C21.0691 3.0276 21.751 3.68435 21.751 4.49199V14.0108H20.2321H1.99771H0.478271V4.49199C0.478271 3.68435 1.16013 3.0276 1.99771 3.0276H5.03673H6.55617V1.56321C6.55617 0.755565 7.23803 0.0988159 8.07575 0.0988159H14.1537C14.9912 0.0988159 15.6731 0.755565 15.6731 1.56321V3.0276H17.1925ZM14.1537 1.56321H8.07575V3.0276H14.1537V1.56321ZM5.03673 11.8142C5.03673 12.2185 5.37653 12.5464 5.79645 12.5464C6.21638 12.5464 6.55617 12.2185 6.55617 11.8142V4.49199H5.03673V11.8142ZM15.6731 11.8142C15.6731 12.2185 16.0129 12.5464 16.4328 12.5464C16.8527 12.5464 17.1925 12.2185 17.1925 11.8142V4.49199H15.6731V11.8142ZM1.99771 17.6719C1.16013 17.6719 0.478271 17.0152 0.478271 16.2076V15.4754H21.751V16.2076C21.751 17.0152 21.0691 17.6719 20.2316 17.6719H1.99771Z" fill="url(#paint0_linear_38_1742)"/>
</g>
<defs>
<linearGradient id="paint0_linear_38_1742" x1="0.478271" y1="17.6719" x2="0.478271" y2="1.48617" gradientUnits="userSpaceOnUse">
<stop stop-color="#4367E8"/>
<stop offset="0.6" stop-color="#A192FF"/>
<stop offset="1" stop-color="#A46CEB"/>
</linearGradient>
<clipPath id="clip0_38_1742">
<rect width="21.2727" height="17.5731" fill="white" transform="translate(0.478271 0.0988159)"/>
</clipPath>
</defs>
</svg>
