<svg width="22" height="18" viewBox="0 0 22 18" fill="none" xmlns="http://www.w3.org/2000/svg">
<path fill-rule="evenodd" clip-rule="evenodd" d="M17.3662 3.12972H20.4273C21.271 3.12972 21.9578 3.79124 21.9578 4.60476V14.1928H20.4279H2.06086H0.530365V4.60476C0.530365 3.79124 1.21719 3.12972 2.06086 3.12972H5.12198H6.65248V1.65467C6.65248 0.841152 7.3393 0.179626 8.18311 0.179626H14.3052C15.1489 0.179626 15.8357 0.841152 15.8357 1.65467V3.12972H17.3662ZM14.3052 1.65467H8.18311V3.12972H14.3052V1.65467ZM5.12198 11.9803C5.12198 12.3875 5.46425 12.7178 5.88723 12.7178C6.31021 12.7178 6.65248 12.3875 6.65248 11.9803V4.60476H5.12198V11.9803ZM15.8357 11.9803C15.8357 12.3875 16.178 12.7178 16.601 12.7178C17.0239 12.7178 17.3662 12.3875 17.3662 11.9803V4.60476H15.8357V11.9803ZM2.06086 17.8806C1.21719 17.8806 0.530365 17.2191 0.530365 16.4055V15.668H21.9578V16.4055C21.9578 17.2191 21.271 17.8806 20.4273 17.8806H2.06086Z" fill="white"/>
</svg>
