<svg width="39" height="24" viewBox="0 0 39 24" fill="none" xmlns="http://www.w3.org/2000/svg">
<path d="M12.8208 22.9752C12.4335 23.3677 11.9082 23.5881 11.3605 23.5881C10.8127 23.5881 10.2874 23.3677 9.90006 22.9752L0.604791 13.5554C0.217545 13.1629 9.57941e-07 12.6306 1.00647e-06 12.0755C1.05499e-06 11.5204 0.217546 10.9881 0.604791 10.5955L9.90006 1.17574C10.2896 0.794433 10.8114 0.583442 11.353 0.588212C11.8946 0.592983 12.4127 0.813131 12.7957 1.20124C13.1787 1.58936 13.3959 2.11438 13.4006 2.66323C13.4053 3.21209 13.1971 3.74086 12.8208 4.13565L7.22922 9.98221L36.9344 9.98221C37.4822 9.98221 38.0076 10.2028 38.395 10.5953C38.7824 10.9879 39 11.5203 39 12.0755C39 12.6307 38.7824 13.1631 38.395 13.5557C38.0076 13.9482 37.4822 14.1688 36.9344 14.1688L7.22922 14.1688L12.8208 20.0153C13.2081 20.4079 13.4256 20.9402 13.4256 21.4953C13.4256 22.0504 13.2081 22.5827 12.8208 22.9752Z" fill="white"/>
</svg>
