<svg width="39" height="23" viewBox="0 0 39 23" fill="none" xmlns="http://www.w3.org/2000/svg">
<path d="M26.1792 0.612886C26.5665 0.220455 27.0918 0 27.6395 0C28.1873 0 28.7126 0.220455 29.0999 0.612886L38.3952 10.0327C38.7825 10.4252 39 10.9576 39 11.5126C39 12.0677 38.7825 12.6 38.3952 12.9926L29.0999 22.4124C28.7104 22.7937 28.1886 23.0047 27.647 22.9999C27.1054 22.9951 26.5873 22.775 26.2043 22.3869C25.8213 21.9988 25.6041 21.4738 25.5994 20.9249C25.5947 20.376 25.8029 19.8473 26.1792 19.4525L31.7708 13.6059H2.06562C1.51778 13.6059 0.992384 13.3854 0.605005 12.9928C0.217627 12.6002 0 12.0678 0 11.5126C0 10.9575 0.217627 10.425 0.605005 10.0325C0.992384 9.63989 1.51778 9.41935 2.06562 9.41935H31.7708L26.1792 3.5728C25.7919 3.18025 25.5744 2.64791 25.5744 2.09284C25.5744 1.53778 25.7919 1.00544 26.1792 0.612886Z" fill="url(#paint0_linear_70_3077)"/>
<defs>
<linearGradient id="paint0_linear_70_3077" x1="0" y1="11.5" x2="35.5" y2="11.5" gradientUnits="userSpaceOnUse">
<stop stop-color="#4367E8"/>
<stop offset="0.6" stop-color="#A192FF"/>
<stop offset="1" stop-color="#A46CEB"/>
</linearGradient>
</defs>
</svg>
