<svg width="35" height="41" viewBox="0 0 35 41" fill="none" xmlns="http://www.w3.org/2000/svg">
<path d="M32.5853 4.25424L8.84418 0.0443313C8.08257 -0.0902563 7.29891 0.0844254 6.66553 0.529963C6.03215 0.9755 5.60091 1.65541 5.46665 2.42018L0.0440242 33.3539C-0.0222997 33.7328 -0.013611 34.1212 0.0695938 34.4968C0.152799 34.8723 0.308888 35.2278 0.528943 35.5428C0.748998 35.8578 1.02871 36.1261 1.35208 36.3325C1.67545 36.5389 2.03616 36.6792 2.41358 36.7456L26.1547 40.9555C26.5322 41.0223 26.9191 41.0138 27.2933 40.9304C27.6675 40.847 28.0217 40.6903 28.3356 40.4693C28.6494 40.2483 28.9168 39.9673 29.1225 39.6424C29.3281 39.3176 29.468 38.9552 29.534 38.576L34.9566 7.6423C35.0895 6.87724 34.9143 6.09052 34.4696 5.45516C34.0249 4.8198 33.3471 4.38782 32.5853 4.25424ZM18.8637 21.1506C18.8042 21.4894 18.6278 21.7962 18.3656 22.0175C18.1033 22.2387 17.7718 22.3601 17.4292 22.3605C17.3437 22.3605 17.2583 22.3531 17.1741 22.3385L9.60972 20.9969C9.25023 20.9081 8.93783 20.6853 8.73588 20.3737C8.53393 20.0621 8.45756 19.6851 8.52225 19.319C8.58695 18.953 8.78786 18.6254 9.08425 18.4026C9.38064 18.1798 9.7503 18.0786 10.1183 18.1195L17.679 19.4538C17.8678 19.487 18.0482 19.5572 18.21 19.6605C18.3717 19.7637 18.5116 19.898 18.6216 20.0556C18.7317 20.2132 18.8097 20.391 18.8512 20.5789C18.8928 20.7668 18.897 20.9611 18.8637 21.1506ZM27.4306 16.7247C27.3711 17.0632 27.195 17.3698 26.9331 17.591C26.6712 17.8122 26.3401 17.9338 25.9979 17.9346C25.9117 17.9348 25.8256 17.9268 25.7409 17.9108L10.6122 15.2293C10.2313 15.1616 9.89275 14.9447 9.67107 14.6263C9.4494 14.3079 9.36275 13.9141 9.43018 13.5316C9.49762 13.1491 9.71362 12.8091 10.0307 12.5865C10.3477 12.3639 10.7398 12.2769 11.1208 12.3446L26.2494 15.0279C26.4384 15.0609 26.619 15.131 26.781 15.2341C26.943 15.3373 27.0831 15.4715 27.1933 15.6291C27.3035 15.7867 27.3817 15.9646 27.4234 16.1526C27.465 16.3406 27.4693 16.535 27.436 16.7247H27.4306ZM28.4422 10.9553C28.3827 11.2941 28.2063 11.601 27.944 11.8222C27.6817 12.0434 27.3502 12.1648 27.0077 12.1652C26.9222 12.1651 26.8368 12.1577 26.7525 12.1432L11.6238 9.45988C11.4309 9.43137 11.2457 9.36429 11.079 9.26261C10.9124 9.16093 10.7677 9.02672 10.6536 8.86792C10.5395 8.70911 10.4583 8.52894 10.4148 8.33806C10.3712 8.14719 10.3663 7.94948 10.4002 7.75664C10.4341 7.5638 10.5061 7.37975 10.6121 7.21537C10.7181 7.051 10.8558 6.90963 11.0171 6.79965C11.1785 6.68966 11.3601 6.61329 11.5514 6.57505C11.7426 6.53681 11.9396 6.53747 12.1306 6.57701L27.2592 9.25854C27.4484 9.29128 27.6292 9.36118 27.7914 9.46425C27.9535 9.56732 28.0938 9.70152 28.2043 9.85915C28.3147 10.0168 28.393 10.1948 28.4348 10.3829C28.4765 10.571 28.4809 10.7655 28.4477 10.9553H28.4422Z" fill="url(#paint0_linear_22_1025)"/>
<defs>
<linearGradient id="paint0_linear_22_1025" x1="0" y1="44.1538" x2="0" y2="-2.36539" gradientUnits="userSpaceOnUse">
<stop stop-color="#4367E8"/>
<stop offset="0.6" stop-color="#A192FF"/>
<stop offset="1" stop-color="#A46CEB"/>
</linearGradient>
</defs>
</svg>
