<svg width="52" height="52" viewBox="0 0 52 52" fill="none" xmlns="http://www.w3.org/2000/svg">
<path fill-rule="evenodd" clip-rule="evenodd" d="M12.6642 2.61407C15.9869 0.896774 19.6727 0.000405256 23.413 8.75458e-08C27.8227 -0.000381148 32.1428 1.24437 35.8762 3.59097C39.6096 5.93757 42.6044 9.29065 44.516 13.2642C46.4276 17.2378 47.1782 21.6704 46.6815 26.0518C46.1848 30.4332 44.4609 34.5853 41.7083 38.0302L51.2697 47.591C51.7436 48.0817 52.0058 48.7389 51.9999 49.421C51.994 50.1031 51.7204 50.7557 51.238 51.238C50.7556 51.7204 50.1031 51.994 49.4209 51.9999C48.7387 52.0058 48.0815 51.7436 47.5908 51.2697L38.0295 41.7088C35.1071 44.0431 31.6679 45.6433 28 46.3756C24.3321 47.1079 20.5421 46.9509 16.9474 45.9177C13.3526 44.8846 10.0576 43.0054 7.33832 40.4374C4.619 37.8694 2.55446 34.6874 1.31751 31.1577C0.0805695 27.628 -0.292781 23.8534 0.228718 20.1498C0.750217 16.4462 2.15139 12.9214 4.31494 9.87052C6.47849 6.81961 9.34146 4.33136 12.6642 2.61407ZM8.99091 17.4409C8.20642 19.3347 7.80264 21.3645 7.80264 23.4144C7.80264 27.5543 9.4473 31.5247 12.3748 34.452C15.3023 37.3794 19.2729 39.024 23.413 39.024C27.5531 39.024 31.5237 37.3794 34.4512 34.452C37.3787 31.5247 39.0233 27.5543 39.0233 23.4144C39.0233 21.3645 38.6196 19.3347 37.8351 17.4409C37.0506 15.547 35.9007 13.8262 34.4512 12.3767C33.0016 10.9273 31.2808 9.77746 29.3868 8.99301C27.4929 8.20855 25.463 7.8048 23.413 7.8048C21.363 7.8048 19.3331 8.20855 17.4392 8.99301C15.5452 9.77746 13.8244 10.9273 12.3748 12.3767C10.9253 13.8262 9.77541 15.547 8.99091 17.4409ZM18.9115 22.0109C18.9115 20.1088 20.4507 18.5714 22.3509 18.5714C24.2592 18.5714 25.7929 20.1135 25.7929 22.0109V25.2188C25.7929 27.1209 24.2534 28.6582 22.3534 28.6582C20.4451 28.6582 18.9115 27.1159 18.9115 25.2188V22.0109ZM22.3509 26.2643C22.936 26.2643 23.3989 25.7929 23.3989 25.2188V22.0109C23.3989 21.4326 22.931 20.9654 22.3534 20.9654C21.7683 20.9654 21.3055 21.4367 21.3055 22.0109V25.2188C21.3055 25.797 21.773 26.2643 22.3509 26.2643ZM13.698 18.5714H16.2622C16.9233 18.5714 17.4592 19.1073 17.4592 19.7685V25.5379C17.4592 27.2583 16.0596 28.6582 14.3389 28.6582C12.6186 28.6582 11.219 27.2583 11.219 25.5379C11.219 24.8768 11.7548 24.3409 12.416 24.3409C13.0768 24.3409 13.6129 24.8768 13.6129 25.5379C13.6129 25.9385 13.9387 26.2643 14.3389 26.2643C14.7395 26.2643 15.0652 25.9385 15.0652 25.5379V20.9654H13.698C13.0369 20.9654 12.5011 20.4296 12.5011 19.7685C12.5011 19.1073 13.0369 18.5714 13.698 18.5714ZM34.1266 21.6917C34.1266 19.9682 32.732 18.5714 31.0063 18.5714H28.4422C27.781 18.5714 27.2452 19.1072 27.2452 19.7685V27.4609C27.2452 28.1221 27.781 28.6579 28.4422 28.6579H31.0063C32.7301 28.6579 34.1266 27.2633 34.1266 25.5377C34.1266 24.8313 33.8925 24.1614 33.4627 23.6147C33.8925 23.0679 34.1266 22.3981 34.1266 21.6917ZM31.7327 21.6917C31.7327 22.0929 31.4081 22.4177 31.0063 22.4177H29.6392V20.9654H31.0063C31.4066 20.9654 31.7327 21.2893 31.7327 21.6917ZM31.0063 26.2643H29.6392V24.8116H31.0063C31.4076 24.8116 31.7327 25.1364 31.7327 25.5379C31.7327 25.9391 31.4081 26.2643 31.0063 26.2643Z" fill="url(#paint0_linear_30_1583)"/>
<defs>
<linearGradient id="paint0_linear_30_1583" x1="0" y1="54.5574" x2="0" y2="-4.10526" gradientUnits="userSpaceOnUse">
<stop stop-color="#4367E8"/>
<stop offset="0.6" stop-color="#A192FF"/>
<stop offset="1" stop-color="#A46CEB"/>
</linearGradient>
</defs>
</svg>
