<svg width="50" height="50" viewBox="0 0 50 50" fill="none" xmlns="http://www.w3.org/2000/svg">
<path fill-rule="evenodd" clip-rule="evenodd" d="M20.15 13.1275C21.1625 12.4125 22.6 11.9125 24.275 11.9125C28.2575 11.9125 30.045 14.3675 30.045 15.8025C30.045 16.6975 29.5125 17.81 28.0875 18.6825C28.0353 18.7144 27.9841 18.7476 27.9338 18.782L22.4125 22.0875C21.6373 22.5517 21.0653 23.2875 20.805 24.1485C20.7539 24.3172 20.7148 24.491 20.6887 24.6691C20.6617 24.8517 20.6489 25.0353 20.65 25.2184V28.955C20.65 29.9164 21.0319 30.8384 21.7117 31.5183C22.3916 32.1981 23.3136 32.58 24.275 32.58C25.2364 32.58 26.1584 32.1981 26.8383 31.5183C27.5181 30.8384 27.9 29.9164 27.9 28.955V27.2526L31.8475 24.89C31.9325 24.8392 32.0152 24.785 32.0956 24.7276C35.0465 22.8349 37.295 19.6804 37.295 15.8025C37.295 8.93751 30.6675 4.66251 24.275 4.66251C21.185 4.66251 18.27 5.57751 15.97 7.20251C13.76 8.76501 12.015 11.0625 11.4475 13.8775C11.2789 14.8109 11.4828 15.7732 12.0156 16.5579C12.5483 17.3427 13.3674 17.8874 14.2971 18.0752C15.2268 18.2629 16.1931 18.0788 16.9887 17.5624C17.7842 17.0459 18.3456 16.2382 18.5525 15.3125C18.6925 14.62 19.175 13.8175 20.15 13.1275ZM27.883 44.068C28.8207 43.1304 29.3475 41.8586 29.3475 40.5325C29.3475 39.2064 28.8207 37.9346 27.883 36.997C26.9454 36.0593 25.6736 35.5325 24.3475 35.5325C23.0214 35.5325 21.7497 36.0593 20.812 36.997C19.8743 37.9346 19.3475 39.2064 19.3475 40.5325C19.3475 41.8586 19.8743 43.1304 20.812 44.068C21.7497 45.0057 23.0214 45.5325 24.3475 45.5325C25.6736 45.5325 26.9454 45.0057 27.883 44.068Z" fill="url(#paint0_linear_22_1015)"/>
<defs>
<linearGradient id="paint0_linear_22_1015" x1="11.3897" y1="25.0975" x2="11.3897" y2="1.43593" gradientUnits="userSpaceOnUse">
<stop stop-color="#4367E8"/>
<stop offset="0.6" stop-color="#A192FF"/>
<stop offset="1" stop-color="#A46CEB"/>
</linearGradient>
</defs>
</svg>
