<svg width="30" height="31" viewBox="0 0 30 31" fill="none" xmlns="http://www.w3.org/2000/svg">
<path d="M21.4708 0.663864H1.22239C0.744545 0.663864 0.357147 1.05126 0.357147 1.52911V29.3322C0.357147 29.8101 0.744545 30.1975 1.22239 30.1975H21.4708C21.9486 30.1975 22.336 29.8101 22.336 29.3322V1.52911C22.336 1.05126 21.9487 0.663864 21.4708 0.663864ZM9.44087 17.6021L6.81266 20.2302C6.6504 20.3925 6.43034 20.4836 6.20088 20.4836C5.97142 20.4836 5.7513 20.3925 5.5891 20.2302L4.35047 18.9915C4.01257 18.6536 4.01257 18.1058 4.35047 17.7679C4.68838 17.43 5.23625 17.43 5.5741 17.7679L6.20088 18.3947L8.21724 16.3783C8.55509 16.0405 9.10296 16.0404 9.44087 16.3783C9.77877 16.7163 9.77877 17.2642 9.44087 17.6021ZM9.44087 12.3527L6.81266 14.9809C6.6504 15.1431 6.43034 15.2343 6.20088 15.2343C5.97142 15.2343 5.7513 15.1431 5.5891 14.9808L4.35047 13.7422C4.01257 13.4043 4.01257 12.8565 4.35047 12.5186C4.68838 12.1806 5.23625 12.1807 5.5741 12.5186L6.20088 13.1453L8.21724 11.129C8.55509 10.7911 9.10296 10.7911 9.44087 11.129C9.77877 11.4669 9.77877 12.0148 9.44087 12.3527ZM9.44087 7.10323L6.81266 9.73143C6.6504 9.8937 6.43034 9.98483 6.20088 9.98483C5.97142 9.98483 5.7513 9.8937 5.5891 9.73138L4.35047 8.49275C4.01257 8.15485 4.01257 7.60703 4.35047 7.26913C4.68838 6.93122 5.23625 6.93128 5.5741 7.26913L6.20088 7.89591L8.21724 5.87955C8.55509 5.54164 9.10296 5.54164 9.44087 5.87955C9.77877 6.21751 9.77877 6.76532 9.44087 7.10323ZM17.6874 24.9009H12.1926C11.7147 24.9009 11.3273 24.5135 11.3273 24.0357C11.3273 23.5578 11.7147 23.1704 12.1926 23.1704H17.6874C18.1652 23.1704 18.5526 23.5578 18.5526 24.0357C18.5526 24.5135 18.1653 24.9009 17.6874 24.9009ZM17.6874 19.4505H12.1926C11.7147 19.4505 11.3273 19.0631 11.3273 18.5852C11.3273 18.1074 11.7147 17.72 12.1926 17.72H17.6874C18.1652 17.72 18.5526 18.1074 18.5526 18.5852C18.5526 19.0631 18.1653 19.4505 17.6874 19.4505ZM17.6874 14.2011H12.1926C11.7147 14.2011 11.3273 13.8137 11.3273 13.3359C11.3273 12.858 11.7147 12.4706 12.1926 12.4706H17.6874C18.1652 12.4706 18.5526 12.858 18.5526 13.3359C18.5526 13.8137 18.1653 14.2011 17.6874 14.2011ZM17.6874 8.95168H12.1926C11.7147 8.95168 11.3273 8.56428 11.3273 8.08643C11.3273 7.60859 11.7147 7.22119 12.1926 7.22119H17.6874C18.1652 7.22119 18.5526 7.60859 18.5526 8.08643C18.5526 8.56428 18.1653 8.95168 17.6874 8.95168Z" fill="#ACACAC"/>
<path fill-rule="evenodd" clip-rule="evenodd" d="M29.8908 3.60056C29.8908 1.98128 28.5734 0.663864 26.9541 0.663864C25.3348 0.663864 24.0173 1.98128 24.0173 3.60056V6.13831H29.8908V3.60056ZM24.0689 24.5245C23.9916 24.7381 24.0014 24.9735 24.0962 25.1799L26.1677 29.6932C26.3087 30.0005 26.6159 30.1975 26.954 30.1975C27.2922 30.1975 27.5994 30.0005 27.7404 29.6932L29.8119 25.1799C29.9067 24.9735 29.9164 24.7381 29.8391 24.5245L29.3074 23.0557H24.6006L24.0689 24.5245ZM29.8908 7.8688V20.46C29.8908 20.9378 29.5034 21.3252 29.0255 21.3252H24.8826C24.4047 21.3252 24.0173 20.9378 24.0173 20.46V7.8688H29.8908Z" fill="#ACACAC"/>
</svg>
