<svg width="36" height="36" viewBox="0 0 36 36" fill="none" xmlns="http://www.w3.org/2000/svg">
<path d="M35.4012 21.5474L33.1967 19.0061C34.7856 17.0184 35.6513 14.5608 35.6513 11.9919C35.6513 5.78965 30.6055 0.743729 24.4032 0.743729C18.2009 0.743729 13.1551 5.78965 13.1551 11.9919C13.1551 18.1941 18.201 23.24 24.4032 23.24H34.6288C35.0292 23.24 35.3928 23.0063 35.559 22.642C35.7253 22.2777 35.6636 21.8499 35.4012 21.5474ZM24.4032 18.9453C23.8385 18.9453 23.3806 18.4874 23.3806 17.9227C23.3806 17.358 23.8385 16.9002 24.4032 16.9002C24.9679 16.9002 25.4258 17.358 25.4258 17.9227C25.4258 18.4874 24.968 18.9453 24.4032 18.9453ZM27.2482 11.5938C26.7499 12.1186 26.1152 12.4922 25.4258 12.6794V14.8268C25.4258 15.3915 24.968 15.8494 24.4033 15.8494C23.8385 15.8494 23.3807 15.3915 23.3807 14.8268V11.7938C23.3807 11.2291 23.8385 10.7713 24.4033 10.7713C24.9229 10.7713 25.4065 10.5633 25.7651 10.1857C26.1233 9.80844 26.3056 9.31352 26.2786 8.79208C26.2279 7.81581 25.4214 7.03553 24.4425 7.01583C24.4297 7.01556 24.4169 7.01542 24.4041 7.01542C23.4691 7.01542 22.6728 7.70333 22.5435 8.63018C22.5314 8.71648 22.5254 8.80503 22.5254 8.89338C22.5254 9.45811 22.0675 9.91594 21.5028 9.91594C20.9381 9.91594 20.4803 9.45811 20.4803 8.89338C20.4803 8.71082 20.493 8.52724 20.518 8.34754C20.7922 6.38266 22.4993 4.93042 24.4837 4.97112C26.5294 5.01236 28.215 6.64416 28.321 8.68608C28.3773 9.77312 27.9963 10.8058 27.2482 11.5938Z" fill="#ACACAC"/>
<path d="M15.4047 23.3764H8.58765C8.02292 23.3764 7.56509 22.9185 7.56509 22.3538C7.56509 21.7891 8.02292 21.3312 8.58765 21.3312H14.9544C12.8414 19.1937 11.4458 16.3456 11.1638 13.1816C5.3488 13.609 0.748034 18.4767 0.748034 24.3989C0.748034 26.9678 1.61373 29.4253 3.20265 31.4131L0.998152 33.9544C0.735763 34.257 0.674069 34.6848 0.840337 35.0491C1.0066 35.4133 1.37016 35.6471 1.77059 35.6471H11.9962C17.9185 35.6471 22.7861 31.0463 23.2135 25.2313C20.6686 25.0045 18.3283 24.0568 16.3973 22.5955C16.2886 23.0433 15.8861 23.3764 15.4047 23.3764ZM15.4047 27.4666H8.58765C8.02292 27.4666 7.56509 27.0088 7.56509 26.444C7.56509 25.8793 8.02292 25.4215 8.58765 25.4215H15.4047C15.9694 25.4215 16.4273 25.8793 16.4273 26.444C16.4273 27.0088 15.9694 27.4666 15.4047 27.4666Z" fill="#ACACAC"/>
</svg>
